<?xml version="1.0" standalone="no"?>
<!DOCTYPE svg PUBLIC "-//W3C//DTD SVG 20010904//EN"
 "http://www.w3.org/TR/2001/REC-SVG-20010904/DTD/svg10.dtd">
<svg version="1.0" xmlns="http://www.w3.org/2000/svg"
 width="500.000000pt" height="500.000000pt" viewBox="0 0 500.000000 500.000000"
 preserveAspectRatio="xMidYMid meet">
<metadata>
Created by potrace 1.14, written by Peter Selinger 2001-2017
</metadata>
<g transform="translate(0.000000,500.000000) scale(0.100000,-0.100000)"
fill="#000000" stroke="none">
<path d="M0 2500 l0 -2500 2500 0 2500 0 0 2500 0 2500 -2500 0 -2500 0 0
-2500z m2643 1725 c326 -49 576 -159 807 -357 41 -35 98 -91 127 -124 l52 -60
-237 -259 c-130 -142 -241 -260 -247 -262 -5 -2 -26 20 -45 49 -69 102 -198
216 -309 273 -68 34 -172 64 -268 75 -241 29 -435 -35 -609 -202 -142 -136
-236 -297 -290 -493 -26 -94 -28 -112 -28 -310 0 -196 2 -217 26 -307 76 -281
258 -518 484 -631 168 -84 426 -89 617 -12 131 54 271 173 330 282 31 59 67
188 67 244 l0 39 -372 2 -373 3 -3 288 -2 287 755 0 755 0 0 -352 c0 -343 -1
-355 -25 -445 -115 -429 -355 -722 -750 -917 -515 -254 -1115 -225 -1569 76
-233 155 -458 412 -581 665 -211 434 -230 994 -48 1453 79 198 187 368 339
529 243 258 532 412 869 465 125 19 400 20 528 1z m1540 -2946 c53 -14 132
-93 146 -144 18 -64 13 -117 -14 -172 -45 -90 -115 -127 -227 -122 -94 5 -149
39 -190 118 -97 186 74 379 285 320z"/>
<path d="M1457 3619 c-18 -10 -18 -12 0 -31 10 -11 18 -27 18 -36 0 -9 8 -18
17 -20 10 -2 31 -17 47 -33 35 -35 54 -36 83 -7 19 19 20 22 4 33 -9 7 -25 11
-35 8 -19 -5 -34 17 -35 52 -1 14 -8 20 -23 20 -13 0 -28 6 -35 13 -14 14 -18
14 -41 1z"/>
<path d="M1422 3510 c-31 -29 -38 -65 -18 -96 33 -50 96 -51 130 -2 21 30 20
38 -4 38 -11 0 -20 -4 -20 -9 0 -16 -40 -23 -55 -11 -20 16 -19 47 0 58 10 5
13 15 9 25 -8 22 -16 21 -42 -3z"/>
<path d="M1331 3387 c-37 -18 -52 -64 -36 -104 25 -59 106 -56 137 6 16 32 15
61 -2 61 -4 0 -17 -16 -29 -35 -20 -34 -41 -46 -41 -24 0 5 11 27 25 47 23 34
24 38 8 50 -21 15 -32 15 -62 -1z m29 -34 c-1 -11 -26 -43 -34 -43 -10 0 -7
25 6 38 13 13 28 16 28 5z"/>
<path d="M1157 3293 c-4 -3 -7 -15 -7 -25 0 -13 7 -18 25 -18 20 0 25 5 25 25
0 18 -5 25 -18 25 -10 0 -22 -3 -25 -7z"/>
<path d="M1230 3245 c-16 -20 -11 -26 71 -74 41 -24 63 -43 61 -53 -1 -8 4
-21 12 -27 12 -10 18 -8 31 13 26 39 11 61 -73 108 -42 24 -79 44 -83 46 -3 1
-12 -4 -19 -13z"/>
<path d="M1187 3150 c-28 -22 -43 -74 -32 -110 10 -30 61 -50 96 -38 29 10 59
60 59 97 0 29 -43 71 -73 71 -13 0 -36 -9 -50 -20z m57 -36 c21 -8 21 -53 0
-61 -18 -7 -45 6 -51 24 -2 6 3 18 12 27 19 18 18 18 39 10z"/>
<path d="M1114 2995 c-4 -8 -4 -24 -1 -35 3 -11 -1 -21 -9 -24 -8 -3 -14 -14
-14 -24 0 -13 14 -23 53 -35 69 -22 84 -21 90 3 4 16 -2 22 -34 32 -50 14 -64
30 -50 56 7 13 7 22 -1 30 -16 16 -27 15 -34 -3z"/>
<path d="M1014 2858 c-12 -5 -26 -20 -32 -33 -15 -32 -26 -115 -16 -115 5 0
57 -8 116 -18 106 -19 107 -19 112 1 7 29 2 34 -43 41 -39 6 -39 6 -34 44 8
61 -49 106 -103 80z m54 -81 c3 -23 0 -27 -23 -27 -30 0 -43 24 -25 46 19 22
45 13 48 -19z"/>
<path d="M1067 2568 c-43 -33 -40 -100 5 -132 45 -32 101 -10 113 45 8 34 -11
89 -30 89 -16 0 -27 -27 -15 -35 15 -9 12 -41 -5 -55 -13 -11 -15 -5 -15 44 0
47 -3 56 -18 56 -10 0 -26 -6 -35 -12z m20 -85 c-4 -17 -4 -17 -12 0 -4 9 -4
25 0 35 8 16 8 16 12 0 3 -10 3 -26 0 -35z"/>
<path d="M3020 2514 c0 -29 -3 -35 -16 -30 -38 14 -75 -35 -54 -73 8 -16 20
-20 55 -19 l45 1 0 78 c0 64 -3 79 -15 79 -11 0 -15 -11 -15 -36z m-3 -70 c6
-16 -15 -37 -29 -28 -4 3 -8 14 -8 25 0 23 28 26 37 3z"/>
<path d="M3442 2538 c-11 -14 -16 -52 -14 -110 3 -51 32 -54 32 -4 0 19 6 37
13 40 10 5 10 7 0 12 -18 8 -16 41 2 48 8 3 15 10 15 16 0 14 -35 13 -48 -2z"/>
<path d="M2712 2475 c-24 -18 -29 -56 -9 -73 7 -6 32 -11 55 -10 l42 0 0 44
c0 37 -3 44 -19 44 -11 0 -25 2 -33 5 -7 3 -23 -2 -36 -10z m53 -25 c4 -6 1
-18 -6 -26 -11 -13 -14 -13 -27 0 -8 8 -11 19 -8 25 9 14 33 14 41 1z"/>
<path d="M2839 2478 c-45 -36 -21 -87 41 -86 l40 0 0 44 c0 37 -3 44 -19 44
-11 0 -25 2 -33 5 -7 3 -21 0 -29 -7z m48 -34 c8 -20 -8 -36 -26 -25 -15 10
-8 41 9 41 6 0 13 -7 17 -16z"/>
<path d="M3092 2474 c-25 -17 -29 -56 -8 -73 19 -16 68 -10 74 8 3 10 -2 12
-21 7 -14 -3 -29 -2 -32 4 -4 6 8 10 29 10 25 0 36 5 36 14 0 13 -36 46 -50
46 -3 0 -16 -7 -28 -16z m43 -14 c3 -5 -3 -10 -15 -10 -12 0 -18 5 -15 10 3 6
10 10 15 10 5 0 12 -4 15 -10z"/>
<path d="M3318 2479 c-21 -12 -24 -59 -6 -77 20 -20 65 -14 82 10 20 29 20 34
-4 58 -22 22 -46 25 -72 9z m50 -42 c2 -12 -3 -17 -17 -17 -12 0 -21 6 -21 13
0 31 32 34 38 4z"/>
<path d="M3513 2480 c-26 -10 -32 -57 -11 -78 17 -17 58 -15 58 2 0 8 -8 13
-17 12 -30 -2 -27 33 3 45 23 8 25 12 14 19 -18 11 -18 11 -47 0z"/>
<path d="M2590 2470 c0 -5 7 -10 15 -10 19 0 19 -9 0 -34 -23 -31 -18 -36 30
-36 25 0 45 5 45 10 0 6 -9 10 -20 10 -24 0 -25 8 -5 34 23 30 18 36 -25 36
-22 0 -40 -4 -40 -10z"/>
<path d="M3180 2475 c0 -18 43 -86 52 -83 6 2 21 23 35 46 24 41 24 42 5 42
-12 0 -23 -9 -27 -20 -3 -11 -10 -20 -15 -20 -4 0 -10 9 -13 20 -4 17 -37 30
-37 15z"/>
<path d="M1156 2401 c-4 -5 -3 -16 0 -25 8 -20 -13 -46 -37 -46 -19 0 -44 34
-35 49 6 10 -24 25 -32 16 -14 -14 -3 -67 18 -90 59 -62 155 7 124 89 -7 17
-29 21 -38 7z"/>
<path d="M1070 2236 c0 -14 5 -28 10 -31 6 -3 10 -20 10 -37 0 -30 1 -30 38
-24 85 14 110 25 105 47 -5 19 -11 20 -59 14 -49 -6 -53 -5 -59 17 -13 42 -45
51 -45 14z"/>
<path d="M1153 2112 c-44 -17 -50 -26 -34 -51 8 -12 15 -11 51 3 32 13 45 14
56 5 25 -20 15 -40 -31 -60 -45 -20 -58 -45 -30 -55 26 -10 110 38 113 65 5
34 -6 69 -28 91 -23 23 -39 23 -97 2z"/>
<path d="M1243 1948 c-35 -17 -47 -59 -30 -101 32 -76 124 -78 150 -4 9 25
-16 81 -44 101 -27 18 -44 19 -76 4z m68 -54 c17 -21 0 -49 -32 -49 -27 0 -37
28 -19 50 16 19 34 19 51 -1z"/>
<path d="M1341 1784 c-21 -15 -23 -23 -19 -82 4 -75 -12 -92 -39 -43 -17 28
-41 40 -56 25 -8 -9 12 -60 31 -77 33 -30 69 -31 97 -3 23 23 25 30 19 81 -6
45 -4 55 8 55 20 0 35 -18 43 -53 7 -28 20 -33 44 -18 33 21 -41 131 -88 131
-9 0 -27 -7 -40 -16z"/>
<path d="M1526 1579 c-45 -53 -48 -91 -8 -116 15 -10 35 -27 45 -38 17 -20 18
-19 67 34 48 52 49 55 33 74 -17 18 -19 18 -49 -18 -20 -24 -37 -36 -50 -33
-30 5 -28 33 5 71 30 33 30 35 12 51 -18 16 -20 15 -55 -25z"/>
<path d="M1682 1468 c4 -12 21 -23 51 -32 9 -3 17 -15 17 -26 0 -20 -3 -19
-46 11 -50 34 -64 30 -64 -22 0 -65 93 -96 137 -45 30 35 29 57 -3 95 -20 24
-34 31 -61 31 -22 0 -33 -4 -31 -12z m38 -99 c0 -18 -35 -5 -38 14 -3 16 -1
17 17 7 12 -6 21 -15 21 -21z"/>
<path d="M1956 1395 c-19 -39 -27 -42 -46 -20 -7 8 -27 15 -45 15 -40 0 -75
-38 -75 -79 0 -33 33 -71 61 -71 11 0 27 -7 35 -15 9 -8 20 -15 25 -15 9 0 99
172 99 189 0 6 -9 15 -19 20 -16 9 -21 5 -35 -24z m-46 -85 c0 -25 -30 -41
-53 -29 -21 12 -22 33 -1 53 19 20 54 5 54 -24z"/>
<path d="M2019 1287 c-45 -30 -61 -63 -56 -115 6 -52 36 -88 86 -102 71 -19
151 45 151 122 0 54 -66 118 -123 118 -13 0 -39 -10 -58 -23z m109 -54 c31
-42 -1 -115 -51 -115 -39 0 -57 19 -57 60 0 69 69 104 108 55z"/>
</g>
</svg>
